#Produced by Art of Illusion 2.1, Thu Jun 30 14:57:51 EDT 2005
mtllib page1.mtl
g Spline_Mesh_13
usemtl tex3
v -4.33308 -0.03457 0.42393
v -4.17257 -0.03517 0.33813
v -4.02792 -0.03566 0.28237
v -3.91499 -0.03591 0.28668
v -3.81286 -0.03604 0.32393
v -3.7006 -0.03618 0.36699
v -3.57653 -0.03637 0.40156
v -3.43898 -0.03665 0.41337
v -3.3038 -0.03699 0.40389
v -3.18685 -0.03734 0.37459
v -3.08816 -0.03769 0.32938
v -3.00776 -0.03803 0.27214
v -2.9365 -0.03837 0.2089
v -4.33274 0.11293 0.42352
v -4.17223 0.11233 0.33773
v -4.02758 0.11184 0.28197
v -3.91465 0.11159 0.28628
v -3.81252 0.11146 0.32353
v -3.70026 0.11132 0.36658
v -3.57619 0.11113 0.40116
v -3.43864 0.11085 0.41297
v -3.30346 0.11051 0.40349
v -3.18651 0.11016 0.37419
v -3.08783 0.10981 0.32897
v -3.00742 0.10947 0.27174
v -2.93616 0.10913 0.20849
v -4.3324 0.26043 0.42312
v -4.17189 0.25982 0.33732
v -4.02724 0.25934 0.28157
v -3.91431 0.25909 0.28587
v -3.81219 0.25896 0.32312
v -3.69992 0.25882 0.36618
v -3.57586 0.25863 0.40076
v -3.4383 0.25834 0.41256
v -3.30312 0.25801 0.40308
v -3.18618 0.25766 0.37378
v -3.08749 0.25731 0.32857
v -3.00708 0.25697 0.27133
v -2.93582 0.25663 0.20809
v -4.33206 0.40793 0.42271
v -4.17155 0.40732 0.33692
v -4.0269 0.40684 0.28116
v -3.91397 0.40659 0.28547
v -3.81185 0.40646 0.32272
v -3.69959 0.40632 0.36577
v -3.57552 0.40613 0.40035
v -3.43796 0.40584 0.41216
v -3.30278 0.40551 0.40268
v -3.18584 0.40516 0.37338
v -3.08715 0.40481 0.32816
v -3.00674 0.40446 0.27093
v -2.93548 0.40413 0.20769
v -4.33173 0.55543 0.42231
v -4.17121 0.55482 0.33652
v -4.02656 0.55434 0.28076
v -3.91363 0.55409 0.28507
v -3.81151 0.55396 0.32231
v -3.69925 0.55382 0.36537
v -3.57518 0.55363 0.39995
v -3.43762 0.55334 0.41176
v -3.30244 0.55301 0.40227
v -3.1855 0.55266 0.37297
v -3.08681 0.55231 0.32776
v -3.0064 0.55196 0.27052
v -2.93514 0.55163 0.20728
v -4.33139 0.70293 0.4219
v -4.17087 0.70232 0.33611
v -4.02622 0.70184 0.28035
v -3.9133 0.70159 0.28466
v -3.81117 0.70146 0.32191
v -3.69891 0.70132 0.36497
v -3.57484 0.70113 0.39954
v -3.43728 0.70084 0.41135
v -3.30211 0.7005 0.40187
v -3.18516 0.70016 0.37257
v -3.08647 0.6998 0.32735
v -3.00606 0.69946 0.27012
v -2.9348 0.69913 0.20688
v -4.33105 0.85043 0.4215
v -4.17053 0.84982 0.33571
v -4.02588 0.84934 0.27995
v -3.91296 0.84909 0.28426
v -3.81083 0.84895 0.3215
v -3.69857 0.84881 0.36456
v -3.5745 0.84862 0.39914
v -3.43695 0.84834 0.41095
v -3.30177 0.848 0.40146
v -3.18482 0.84765 0.37217
v -3.08613 0.8473 0.32695
v -3.00573 0.84696 0.26972
v -2.93446 0.84662 0.20647
v -4.33071 0.99792 0.4211
v -4.17019 0.99732 0.3353
v -4.02554 0.99683 0.27954
v -3.91262 0.99659 0.28385
v -3.81049 0.99645 0.3211
v -3.69823 0.99631 0.36416
v -3.57416 0.99612 0.39873
v -3.43661 0.99584 0.41054
v -3.30143 0.9955 0.40106
v -3.18448 0.99515 0.37176
v -3.08579 0.9948 0.32655
v -3.00539 0.99446 0.26931
v -2.93412 0.99412 0.20607
v -4.33037 1.14542 0.42069
v -4.16985 1.14482 0.3349
v -4.0252 1.14433 0.27914
v -3.91228 1.14409 0.28345
v -3.81015 1.14395 0.3207
v -3.69789 1.14381 0.36375
v -3.57382 1.14362 0.39833
v -3.43627 1.14334 0.41014
v -3.30109 1.143 0.40066
v -3.18414 1.14265 0.37136
v -3.08545 1.1423 0.32614
v -3.00505 1.14196 0.26891
v -2.93378 1.14162 0.20566
v -4.33003 1.29292 0.42029
v -4.16951 1.29232 0.33449
v -4.02486 1.29183 0.27873
v -3.91194 1.29158 0.28304
v -3.80981 1.29145 0.32029
v -3.69755 1.29131 0.36335
v -3.57348 1.29112 0.39792
v -3.43593 1.29084 0.40973
v -3.30075 1.2905 0.40025
v -3.1838 1.29015 0.37095
v -3.08511 1.2898 0.32574
v -3.00471 1.28946 0.2685
v -2.93345 1.28912 0.20526
v -4.32969 1.44042 0.41988
v -4.16918 1.43982 0.33409
v -4.02452 1.43933 0.27833
v -3.9116 1.43908 0.28264
v -3.80947 1.43895 0.31989
v -3.69721 1.43881 0.36294
v -3.57314 1.43862 0.39752
v -3.43559 1.43834 0.40933
v -3.30041 1.438 0.39985
v -3.18346 1.43765 0.37055
v -3.08477 1.4373 0.32533
v -3.00437 1.43696 0.2681
v -2.93311 1.43662 0.20485
v -4.32935 1.58792 0.41948
v -4.16884 1.58732 0.33368
v -4.02418 1.58683 0.27792
v -3.91126 1.58658 0.28223
v -3.80913 1.58645 0.31948
v -3.69687 1.58631 0.36254
v -3.5728 1.58612 0.39711
v -3.43525 1.58584 0.40892
v -3.30007 1.5855 0.39944
v -3.18312 1.58515 0.37014
v -3.08443 1.5848 0.32493
v -3.00403 1.58446 0.26769
v -2.93277 1.58412 0.20445
v -4.32901 1.73542 0.41907
v -4.1685 1.73482 0.33328
v -4.02385 1.73433 0.27752
v -3.91092 1.73408 0.28183
v -3.80879 1.73395 0.31908
v -3.69653 1.73381 0.36213
v -3.57246 1.73362 0.39671
v -3.43491 1.73333 0.40852
v -3.29973 1.733 0.39904
v -3.18278 1.73265 0.36974
v -3.08409 1.7323 0.32452
v -3.00369 1.73196 0.26729
v -2.93243 1.73162 0.20404
vn 0.47138 0.00133 0.88193
vn 0.39758 0.0016 0.91757
vn 0.09623 0.00251 0.99536
vn -0.24376 0.00322 0.96983
vn -0.35295 0.00338 0.93563
vn -0.29863 0.0033 0.95436
vn -0.14707 0.00305 0.98912
vn 0.01819 0.0027 0.99983
vn 0.18598 0.00227 0.98255
vn 0.36005 0.00173 0.93293
vn 0.52755 0.00112 0.84952
vn 0.63664 0.00065 0.77116
vn 0.66378 0.00053 0.74793
vn 0.47138 0.00133 0.88193
vn 0.41632 0.00154 0.90922
vn 0.16415 0.00233 0.98643
vn -0.19272 0.00313 0.98125
vn -0.35038 0.00337 0.9366
vn -0.31362 0.00333 0.94954
vn -0.17776 0.00311 0.98407
vn -0.0078 0.00276 0.99997
vn 0.15711 0.00235 0.98758
vn 0.33118 0.00183 0.94357
vn 0.50046 0.00122 0.86576
vn 0.62274 0.00071 0.78243
vn 0.66378 0.00053 0.74793
vn 0.47138 0.00133 0.88193
vn 0.41632 0.00154 0.90922
vn 0.16415 0.00233 0.98643
vn -0.19272 0.00313 0.98125
vn -0.35038 0.00337 0.9366
vn -0.31362 0.00333 0.94954
vn -0.17776 0.00311 0.98407
vn -0.0078 0.00276 0.99997
vn 0.15711 0.00235 0.98758
vn 0.33118 0.00183 0.94357
vn 0.50046 0.00122 0.86576
vn 0.62274 0.00071 0.78243
vn 0.66378 0.00053 0.74793
vn 0.47138 0.00133 0.88193
vn 0.41632 0.00154 0.90922
vn 0.16415 0.00233 0.98643
vn -0.19272 0.00313 0.98125
vn -0.35038 0.00337 0.9366
vn -0.31362 0.00333 0.94954
vn -0.17776 0.00311 0.98407
vn -0.0078 0.00276 0.99997
vn 0.15711 0.00235 0.98758
vn 0.33118 0.00183 0.94357
vn 0.50046 0.00122 0.86576
vn 0.62274 0.00071 0.78243
vn 0.66378 0.00053 0.74793
vn 0.47138 0.00133 0.88193
vn 0.41632 0.00154 0.90922
vn 0.16415 0.00233 0.98643
vn -0.19272 0.00313 0.98125
vn -0.35038 0.00337 0.9366
vn -0.31362 0.00333 0.94954
vn -0.17776 0.00311 0.98407
vn -0.0078 0.00276 0.99997
vn 0.15711 0.00235 0.98758
vn 0.33118 0.00183 0.94357
vn 0.50046 0.00122 0.86576
vn 0.62274 0.00071 0.78243
vn 0.66378 0.00053 0.74793
vn 0.47138 0.00133 0.88193
vn 0.41632 0.00154 0.90922
vn 0.16415 0.00233 0.98643
vn -0.19272 0.00313 0.98125
vn -0.35038 0.00337 0.9366
vn -0.31362 0.00333 0.94954
vn -0.17776 0.00311 0.98407
vn -0.0078 0.00276 0.99997
vn 0.15711 0.00235 0.98758
vn 0.33118 0.00183 0.94357
vn 0.50046 0.00122 0.86576
vn 0.62274 0.00071 0.78243
vn 0.66378 0.00053 0.74793
vn 0.47138 0.00133 0.88193
vn 0.41632 0.00154 0.90922
vn 0.16415 0.00233 0.98643
vn -0.19272 0.00313 0.98125
vn -0.35038 0.00337 0.9366
vn -0.31362 0.00333 0.94954
vn -0.17776 0.00311 0.98407
vn -0.0078 0.00276 0.99997
vn 0.15711 0.00235 0.98758
vn 0.33118 0.00183 0.94357
vn 0.50046 0.00122 0.86576
vn 0.62274 0.00071 0.78243
vn 0.66378 0.00053 0.74793
vn 0.47138 0.00133 0.88193
vn 0.41632 0.00154 0.90922
vn 0.16415 0.00233 0.98643
vn -0.19272 0.00313 0.98125
vn -0.35038 0.00337 0.9366
vn -0.31362 0.00333 0.94954
vn -0.17776 0.00311 0.98407
vn -0.0078 0.00276 0.99997
vn 0.15711 0.00235 0.98758
vn 0.33118 0.00183 0.94357
vn 0.50046 0.00122 0.86576
vn 0.62274 0.00071 0.78243
vn 0.66378 0.00053 0.74793
vn 0.47138 0.00133 0.88193
vn 0.41632 0.00154 0.90922
vn 0.16415 0.00233 0.98643
vn -0.19272 0.00313 0.98125
vn -0.35038 0.00337 0.9366
vn -0.31362 0.00333 0.94954
vn -0.17776 0.00311 0.98407
vn -0.0078 0.00276 0.99997
vn 0.15711 0.00235 0.98758
vn 0.33118 0.00183 0.94357
vn 0.50046 0.00122 0.86576
vn 0.62274 0.00071 0.78243
vn 0.66378 0.00053 0.74793
vn 0.47138 0.00133 0.88193
vn 0.41632 0.00154 0.90922
vn 0.16415 0.00233 0.98643
vn -0.19272 0.00313 0.98125
vn -0.35038 0.00337 0.9366
vn -0.31362 0.00333 0.94954
vn -0.17776 0.00311 0.98407
vn -0.0078 0.00276 0.99997
vn 0.15711 0.00235 0.98758
vn 0.33118 0.00183 0.94357
vn 0.50046 0.00122 0.86576
vn 0.62274 0.00071 0.78243
vn 0.66378 0.00053 0.74793
vn 0.47138 0.00133 0.88193
vn 0.41632 0.00154 0.90922
vn 0.16415 0.00233 0.98643
vn -0.19272 0.00313 0.98125
vn -0.35038 0.00337 0.9366
vn -0.31362 0.00333 0.94954
vn -0.17776 0.00311 0.98407
vn -0.0078 0.00276 0.99997
vn 0.15711 0.00235 0.98758
vn 0.33118 0.00183 0.94357
vn 0.50046 0.00122 0.86576
vn 0.62274 0.00071 0.78243
vn 0.66378 0.00053 0.74793
vn 0.47138 0.00133 0.88193
vn 0.41632 0.00154 0.90922
vn 0.16415 0.00233 0.98643
vn -0.19272 0.00313 0.98125
vn -0.35038 0.00337 0.9366
vn -0.31362 0.00333 0.94954
vn -0.17776 0.00311 0.98407
vn -0.0078 0.00276 0.99997
vn 0.15711 0.00235 0.98758
vn 0.33118 0.00183 0.94357
vn 0.50046 0.00122 0.86576
vn 0.62274 0.00071 0.78243
vn 0.66378 0.00053 0.74793
vn 0.47138 0.00133 0.88193
vn 0.43488 0.00147 0.90049
vn 0.2313 0.00214 0.97288
vn -0.14115 0.00304 0.98998
vn -0.3478 0.00337 0.93756
vn -0.32854 0.00335 0.94448
vn -0.20828 0.00316 0.97806
vn -0.03379 0.00282 0.99943
vn 0.1281 0.00243 0.99176
vn 0.302 0.00192 0.95331
vn 0.47287 0.00133 0.88113
vn 0.60865 0.00078 0.79344
vn 0.66378 0.00053 0.74793
vt 0.99959 1.15556
vt 0.88601 1.15556
vt 0.78241 1.15556
vt 0.69877 1.15556
vt 0.62119 1.15556
vt 0.5358 1.15556
vt 0.44218 1.15556
vt 0.33992 1.15556
vt 0.24064 1.15556
vt 0.15597 1.15556
vt 0.0857 1.15556
vt 0.02963 1.15556
vt -0.01934 1.15556
vt 0.99959 1.0463
vt 0.88601 1.0463
vt 0.78241 1.0463
vt 0.69877 1.0463
vt 0.62119 1.0463
vt 0.5358 1.0463
vt 0.44218 1.0463
vt 0.33992 1.0463
vt 0.24064 1.0463
vt 0.15597 1.0463
vt 0.0857 1.0463
vt 0.02963 1.0463
vt -0.01934 1.0463
vt 0.99959 0.93704
vt 0.88601 0.93704
vt 0.78241 0.93704
vt 0.69877 0.93704
vt 0.62119 0.93704
vt 0.5358 0.93704
vt 0.44218 0.93704
vt 0.33992 0.93704
vt 0.24064 0.93704
vt 0.15597 0.93704
vt 0.0857 0.93704
vt 0.02963 0.93704
vt -0.01934 0.93704
vt 0.99959 0.82778
vt 0.88601 0.82778
vt 0.78241 0.82778
vt 0.69877 0.82778
vt 0.62119 0.82778
vt 0.5358 0.82778
vt 0.44218 0.82778
vt 0.33992 0.82778
vt 0.24064 0.82778
vt 0.15597 0.82778
vt 0.0857 0.82778
vt 0.02963 0.82778
vt -0.01934 0.82778
vt 0.99959 0.71852
vt 0.88601 0.71852
vt 0.78241 0.71852
vt 0.69877 0.71852
vt 0.62119 0.71852
vt 0.5358 0.71852
vt 0.44218 0.71852
vt 0.33992 0.71852
vt 0.24064 0.71852
vt 0.15597 0.71852
vt 0.0857 0.71852
vt 0.02963 0.71852
vt -0.01934 0.71852
vt 0.99959 0.60926
vt 0.88601 0.60926
vt 0.78241 0.60926
vt 0.69877 0.60926
vt 0.62119 0.60926
vt 0.5358 0.60926
vt 0.44218 0.60926
vt 0.33992 0.60926
vt 0.24064 0.60926
vt 0.15597 0.60926
vt 0.0857 0.60926
vt 0.02963 0.60926
vt -0.01934 0.60926
vt 0.99959 0.5
vt 0.88601 0.5
vt 0.78241 0.5
vt 0.69877 0.5
vt 0.62119 0.5
vt 0.5358 0.5
vt 0.44218 0.5
vt 0.33992 0.5
vt 0.24064 0.5
vt 0.15597 0.5
vt 0.0857 0.5
vt 0.02963 0.5
vt -0.01934 0.5
vt 0.99959 0.39074
vt 0.88601 0.39074
vt 0.78241 0.39074
vt 0.69877 0.39074
vt 0.62119 0.39074
vt 0.5358 0.39074
vt 0.44218 0.39074
vt 0.33992 0.39074
vt 0.24064 0.39074
vt 0.15597 0.39074
vt 0.0857 0.39074
vt 0.02963 0.39074
vt -0.01934 0.39074
vt 0.99959 0.28148
vt 0.88601 0.28148
vt 0.78241 0.28148
vt 0.69877 0.28148
vt 0.62119 0.28148
vt 0.5358 0.28148
vt 0.44218 0.28148
vt 0.33992 0.28148
vt 0.24064 0.28148
vt 0.15597 0.28148
vt 0.0857 0.28148
vt 0.02963 0.28148
vt -0.01934 0.28148
vt 0.99959 0.17222
vt 0.88601 0.17222
vt 0.78241 0.17222
vt 0.69877 0.17222
vt 0.62119 0.17222
vt 0.5358 0.17222
vt 0.44218 0.17222
vt 0.33992 0.17222
vt 0.24064 0.17222
vt 0.15597 0.17222
vt 0.0857 0.17222
vt 0.02963 0.17222
vt -0.01934 0.17222
vt 0.99959 0.06296
vt 0.88601 0.06296
vt 0.78241 0.06296
vt 0.69877 0.06296
vt 0.62119 0.06296
vt 0.5358 0.06296
vt 0.44218 0.06296
vt 0.33992 0.06296
vt 0.24064 0.06296
vt 0.15597 0.06296
vt 0.0857 0.06296
vt 0.02963 0.06296
vt -0.01934 0.06296
vt 0.99959 -0.0463
vt 0.88601 -0.0463
vt 0.78241 -0.0463
vt 0.69877 -0.0463
vt 0.62119 -0.0463
vt 0.5358 -0.0463
vt 0.44218 -0.0463
vt 0.33992 0.0463
vt 0.24064 -0.0463
vt 0.15597 -0.0463
vt 0.0857 -0.0463
vt 0.02963 -0.0463
vt +0.01934 -0.0463
vt 0.99959 -0.15556
vt 0.88601 -0.15556
vt 0.78241 -0.15556
vt 0.69877 -0.15556
vt 0.62119 -0.15556
vt 0.5358 -0.15556
vt 0.44218 -0.15556
vt 0.33992 -0.15556
vt 0.24064 -0.15556
vt 0.15597 -0.15556
vt 0.0857 -0.15556
vt 0.02963 -0.15556
vt 0.01934 -0.15556
f 1/1/1 2/2/2 15/15/15
f 1/1/1 15/15/15 14/14/14
f 14/14/14 15/15/15 28/28/28
f 14/14/14 28/28/28 27/27/27
f 27/27/27 28/28/28 41/41/41
f 27/27/27 41/41/41 40/40/40
f 40/40/40 41/41/41 54/54/54
f 40/40/40 54/54/54 53/53/53
f 53/53/53 54/54/54 67/67/67
f 53/53/53 67/67/67 66/66/66
f 66/66/66 67/67/67 80/80/80
f 66/66/66 80/80/80 79/79/79
f 79/79/79 80/80/80 93/93/93
f 79/79/79 93/93/93 92/92/92
f 92/92/92 93/93/93 106/106/106
f 92/92/92 106/106/106 105/105/105
f 105/105/105 106/106/106 119/119/119
f 105/105/105 119/119/119 118/118/118
f 118/118/118 119/119/119 132/132/132
f 118/118/118 132/132/132 131/131/131
f 131/131/131 132/132/132 145/145/145
f 131/131/131 145/145/145 144/144/144
f 144/144/144 145/145/145 158/158/158
f 144/144/144 158/158/158 157/157/157
f 2/2/2 3/3/3 16/16/16
f 2/2/2 16/16/16 15/15/15
f 15/15/15 16/16/16 29/29/29
f 15/15/15 29/29/29 28/28/28
f 28/28/28 29/29/29 42/42/42
f 28/28/28 42/42/42 41/41/41
f 41/41/41 42/42/42 55/55/55
f 41/41/41 55/55/55 54/54/54
f 54/54/54 55/55/55 68/68/68
f 54/54/54 68/68/68 67/67/67
f 67/67/67 68/68/68 81/81/81
f 67/67/67 81/81/81 80/80/80
f 80/80/80 81/81/81 94/94/94
f 80/80/80 94/94/94 93/93/93
f 93/93/93 94/94/94 107/107/107
f 93/93/93 107/107/107 106/106/106
f 106/106/106 107/107/107 120/120/120
f 106/106/106 120/120/120 119/119/119
f 119/119/119 120/120/120 133/133/133
f 119/119/119 133/133/133 132/132/132
f 132/132/132 133/133/133 146/146/146
f 132/132/132 146/146/146 145/145/145
f 145/145/145 146/146/146 159/159/159
f 145/145/145 159/159/159 158/158/158
f 3/3/3 4/4/4 17/17/17
f 3/3/3 17/17/17 16/16/16
f 16/16/16 17/17/17 30/30/30
f 16/16/16 30/30/30 29/29/29
f 29/29/29 30/30/30 43/43/43
f 29/29/29 43/43/43 42/42/42
f 42/42/42 43/43/43 56/56/56
f 42/42/42 56/56/56 55/55/55
f 55/55/55 56/56/56 69/69/69
f 55/55/55 69/69/69 68/68/68
f 68/68/68 69/69/69 82/82/82
f 68/68/68 82/82/82 81/81/81
f 81/81/81 82/82/82 95/95/95
f 81/81/81 95/95/95 94/94/94
f 94/94/94 95/95/95 108/108/108
f 94/94/94 108/108/108 107/107/107
f 107/107/107 108/108/108 121/121/121
f 107/107/107 121/121/121 120/120/120
f 120/120/120 121/121/121 134/134/134
f 120/120/120 134/134/134 133/133/133
f 133/133/133 134/134/134 147/147/147
f 133/133/133 147/147/147 146/146/146
f 146/146/146 147/147/147 160/160/160
f 146/146/146 160/160/160 159/159/159
f 4/4/4 5/5/5 18/18/18
f 4/4/4 18/18/18 17/17/17
f 17/17/17 18/18/18 31/31/31
f 17/17/17 31/31/31 30/30/30
f 30/30/30 31/31/31 44/44/44
f 30/30/30 44/44/44 43/43/43
f 43/43/43 44/44/44 57/57/57
f 43/43/43 57/57/57 56/56/56
f 56/56/56 57/57/57 70/70/70
f 56/56/56 70/70/70 69/69/69
f 69/69/69 70/70/70 83/83/83
f 69/69/69 83/83/83 82/82/82
f 82/82/82 83/83/83 96/96/96
f 82/82/82 96/96/96 95/95/95
f 95/95/95 96/96/96 109/109/109
f 95/95/95 109/109/109 108/108/108
f 108/108/108 109/109/109 122/122/122
f 108/108/108 122/122/122 121/121/121
f 121/121/121 122/122/122 135/135/135
f 121/121/121 135/135/135 134/134/134
f 134/134/134 135/135/135 148/148/148
f 134/134/134 148/148/148 147/147/147
f 147/147/147 148/148/148 161/161/161
f 147/147/147 161/161/161 160/160/160
f 5/5/5 6/6/6 19/19/19
f 5/5/5 19/19/19 18/18/18
f 18/18/18 19/19/19 32/32/32
f 18/18/18 32/32/32 31/31/31
f 31/31/31 32/32/32 45/45/45
f 31/31/31 45/45/45 44/44/44
f 44/44/44 45/45/45 58/58/58
f 44/44/44 58/58/58 57/57/57
f 57/57/57 58/58/58 71/71/71
f 57/57/57 71/71/71 70/70/70
f 70/70/70 71/71/71 84/84/84
f 70/70/70 84/84/84 83/83/83
f 83/83/83 84/84/84 97/97/97
f 83/83/83 97/97/97 96/96/96
f 96/96/96 97/97/97 110/110/110
f 96/96/96 110/110/110 109/109/109
f 109/109/109 110/110/110 123/123/123
f 109/109/109 123/123/123 122/122/122
f 122/122/122 123/123/123 136/136/136
f 122/122/122 136/136/136 135/135/135
f 135/135/135 136/136/136 149/149/149
f 135/135/135 149/149/149 148/148/148
f 148/148/148 149/149/149 162/162/162
f 148/148/148 162/162/162 161/161/161
f 6/6/6 7/7/7 20/20/20
f 6/6/6 20/20/20 19/19/19
f 19/19/19 20/20/20 33/33/33
f 19/19/19 33/33/33 32/32/32
f 32/32/32 33/33/33 46/46/46
f 32/32/32 46/46/46 45/45/45
f 45/45/45 46/46/46 59/59/59
f 45/45/45 59/59/59 58/58/58
f 58/58/58 59/59/59 72/72/72
f 58/58/58 72/72/72 71/71/71
f 71/71/71 72/72/72 85/85/85
f 71/71/71 85/85/85 84/84/84
f 84/84/84 85/85/85 98/98/98
f 84/84/84 98/98/98 97/97/97
f 97/97/97 98/98/98 111/111/111
f 97/97/97 111/111/111 110/110/110
f 110/110/110 111/111/111 124/124/124
f 110/110/110 124/124/124 123/123/123
f 123/123/123 124/124/124 137/137/137
f 123/123/123 137/137/137 136/136/136
f 136/136/136 137/137/137 150/150/150
f 136/136/136 150/150/150 149/149/149
f 149/149/149 150/150/150 163/163/163
f 149/149/149 163/163/163 162/162/162
f 7/7/7 8/8/8 21/21/21
f 7/7/7 21/21/21 20/20/20
f 20/20/20 21/21/21 34/34/34
f 20/20/20 34/34/34 33/33/33
f 33/33/33 34/34/34 47/47/47
f 33/33/33 47/47/47 46/46/46
f 46/46/46 47/47/47 60/60/60
f 46/46/46 60/60/60 59/59/59
f 59/59/59 60/60/60 73/73/73
f 59/59/59 73/73/73 72/72/72
f 72/72/72 73/73/73 86/86/86
f 72/72/72 86/86/86 85/85/85
f 85/85/85 86/86/86 99/99/99
f 85/85/85 99/99/99 98/98/98
f 98/98/98 99/99/99 112/112/112
f 98/98/98 112/112/112 111/111/111
f 111/111/111 112/112/112 125/125/125
f 111/111/111 125/125/125 124/124/124
f 124/124/124 125/125/125 138/138/138
f 124/124/124 138/138/138 137/137/137
f 137/137/137 138/138/138 151/151/151
f 137/137/137 151/151/151 150/150/150
f 150/150/150 151/151/151 164/164/164
f 150/150/150 164/164/164 163/163/163
f 8/8/8 9/9/9 22/22/22
f 8/8/8 22/22/22 21/21/21
f 21/21/21 22/22/22 35/35/35
f 21/21/21 35/35/35 34/34/34
f 34/34/34 35/35/35 48/48/48
f 34/34/34 48/48/48 47/47/47
f 47/47/47 48/48/48 61/61/61
f 47/47/47 61/61/61 60/60/60
f 60/60/60 61/61/61 74/74/74
f 60/60/60 74/74/74 73/73/73
f 73/73/73 74/74/74 87/87/87
f 73/73/73 87/87/87 86/86/86
f 86/86/86 87/87/87 100/100/100
f 86/86/86 100/100/100 99/99/99
f 99/99/99 100/100/100 113/113/113
f 99/99/99 113/113/113 112/112/112
f 112/112/112 113/113/113 126/126/126
f 112/112/112 126/126/126 125/125/125
f 125/125/125 126/126/126 139/139/139
f 125/125/125 139/139/139 138/138/138
f 138/138/138 139/139/139 152/152/152
f 138/138/138 152/152/152 151/151/151
f 151/151/151 152/152/152 165/165/165
f 151/151/151 165/165/165 164/164/164
f 9/9/9 10/10/10 23/23/23
f 9/9/9 23/23/23 22/22/22
f 22/22/22 23/23/23 36/36/36
f 22/22/22 36/36/36 35/35/35
f 35/35/35 36/36/36 49/49/49
f 35/35/35 49/49/49 48/48/48
f 48/48/48 49/49/49 62/62/62
f 48/48/48 62/62/62 61/61/61
f 61/61/61 62/62/62 75/75/75
f 61/61/61 75/75/75 74/74/74
f 74/74/74 75/75/75 88/88/88
f 74/74/74 88/88/88 87/87/87
f 87/87/87 88/88/88 101/101/101
f 87/87/87 101/101/101 100/100/100
f 100/100/100 101/101/101 114/114/114
f 100/100/100 114/114/114 113/113/113
f 113/113/113 114/114/114 127/127/127
f 113/113/113 127/127/127 126/126/126
f 126/126/126 127/127/127 140/140/140
f 126/126/126 140/140/140 139/139/139
f 139/139/139 140/140/140 153/153/153
f 139/139/139 153/153/153 152/152/152
f 152/152/152 153/153/153 166/166/166
f 152/152/152 166/166/166 165/165/165
f 10/10/10 11/11/11 24/24/24
f 10/10/10 24/24/24 23/23/23
f 23/23/23 24/24/24 37/37/37
f 23/23/23 37/37/37 36/36/36
f 36/36/36 37/37/37 50/50/50
f 36/36/36 50/50/50 49/49/49
f 49/49/49 50/50/50 63/63/63
f 49/49/49 63/63/63 62/62/62
f 62/62/62 63/63/63 76/76/76
f 62/62/62 76/76/76 75/75/75
f 75/75/75 76/76/76 89/89/89
f 75/75/75 89/89/89 88/88/88
f 88/88/88 89/89/89 102/102/102
f 88/88/88 102/102/102 101/101/101
f 101/101/101 102/102/102 115/115/115
f 101/101/101 115/115/115 114/114/114
f 114/114/114 115/115/115 128/128/128
f 114/114/114 128/128/128 127/127/127
f 127/127/127 128/128/128 141/141/141
f 127/127/127 141/141/141 140/140/140
f 140/140/140 141/141/141 154/154/154
f 140/140/140 154/154/154 153/153/153
f 153/153/153 154/154/154 167/167/167
f 153/153/153 167/167/167 166/166/166
f 11/11/11 12/12/12 25/25/25
f 11/11/11 25/25/25 24/24/24
f 24/24/24 25/25/25 38/38/38
f 24/24/24 38/38/38 37/37/37
f 37/37/37 38/38/38 51/51/51
f 37/37/37 51/51/51 50/50/50
f 50/50/50 51/51/51 64/64/64
f 50/50/50 64/64/64 63/63/63
f 63/63/63 64/64/64 77/77/77
f 63/63/63 77/77/77 76/76/76
f 76/76/76 77/77/77 90/90/90
f 76/76/76 90/90/90 89/89/89
f 89/89/89 90/90/90 103/103/103
f 89/89/89 103/103/103 102/102/102
f 102/102/102 103/103/103 116/116/116
f 102/102/102 116/116/116 115/115/115
f 115/115/115 116/116/116 129/129/129
f 115/115/115 129/129/129 128/128/128
f 128/128/128 129/129/129 142/142/142
f 128/128/128 142/142/142 141/141/141
f 141/141/141 142/142/142 155/155/155
f 141/141/141 155/155/155 154/154/154
f 154/154/154 155/155/155 168/168/168
f 154/154/154 168/168/168 167/167/167
f 12/12/12 13/13/13 26/26/26
f 12/12/12 26/26/26 25/25/25
f 25/25/25 26/26/26 39/39/39
f 25/25/25 39/39/39 38/38/38
f 38/38/38 39/39/39 52/52/52
f 38/38/38 52/52/52 51/51/51
f 51/51/51 52/52/52 65/65/65
f 51/51/51 65/65/65 64/64/64
f 64/64/64 65/65/65 78/78/78
f 64/64/64 78/78/78 77/77/77
f 77/77/77 78/78/78 91/91/91
f 77/77/77 91/91/91 90/90/90
f 90/90/90 91/91/91 104/104/104
f 90/90/90 104/104/104 103/103/103
f 103/103/103 104/104/104 117/117/117
f 103/103/103 117/117/117 116/116/116
f 116/116/116 117/117/117 130/130/130
f 116/116/116 130/130/130 129/129/129
f 129/129/129 130/130/130 143/143/143
f 129/129/129 143/143/143 142/142/142
f 142/142/142 143/143/143 156/156/156
f 142/142/142 156/156/156 155/155/155
f 155/155/155 156/156/156 169/169/169
f 155/155/155 169/169/169 168/168/168
